<?xml version="1.0" standalone="no"?>
<!DOCTYPE svg PUBLIC "-//W3C//DTD SVG 20010904//EN"
 "http://www.w3.org/TR/2001/REC-SVG-20010904/DTD/svg10.dtd">
<svg version="1.0" xmlns="http://www.w3.org/2000/svg"
 width="1280.000000pt" height="795.000000pt" viewBox="0 0 1280.000000 795.000000"
 preserveAspectRatio="xMidYMid meet">
<g transform="translate(0.000000,795.000000) scale(0.0500000,-0.0500000)"
fill="#000000" stroke="none">
<path d="M2768 7711 c-258 -130 -468 -239 -468 -242 0 -8 860 -578 915 -606
117 -61 453 -159 746 -218 1264 -253 3073 -226 5284 81 l260 37 587 351 c323
193 587 354 588 357 0 3 -181 101 -402 219 -222 118 -420 224 -440 237 l-38
23 -3282 -2 -3283 -1 -467 -236z"/>
<path d="M968 6872 c-351 -224 -638 -409 -638 -412 0 -10 2097 -763 2111 -758
6 2 76 170 155 374 l142 369 -21 21 c-29 28 -1082 803 -1099 808 -7 3 -300
-179 -650 -402z"/>
<path d="M10704 6884 c-296 -218 -549 -406 -561 -418 l-21 -21 142 -369 c78
-204 148 -372 155 -374 14 -5 2111 749 2111 758 0 4 -1262 811 -1280 818 -4 1
-250 -176 -546 -394z"/>
<path d="M3235 6248 c-9 -28 -113 -673 -109 -677 4 -5 641 -82 2179 -265 396
-47 735 -88 753 -91 l32 -6 0 350 0 349 -37 6 c-86 14 -2765 346 -2788 346
-14 0 -27 -6 -30 -12z"/>
<path d="M8160 6085 c-756 -96 -1378 -174 -1382 -175 -5 0 -8 -158 -8 -350 l0
-351 33 6 c17 3 354 43 747 90 393 47 792 94 885 106 94 11 423 51 732 88 309
37 564 69 567 71 2 3 -22 158 -53 345 l-57 340 -44 2 c-25 1 -664 -77 -1420
-172z"/>
<path d="M50 6064 c0 -4 93 -104 208 -223 1057 -1103 4831 -5048 4844 -5065 9
-11 19 -18 22 -15 3 3 -585 1001 -1307 2219 l-1312 2214 -1100 393 c-1389 496
-1355 483 -1355 477z"/>
<path d="M11520 5631 l-1225 -437 -1312 -2214 c-722 -1218 -1311 -2216 -1309
-2217 5 -5 142 137 912 942 368 385 1416 1481 2328 2435 912 954 1700 1776
1749 1827 50 51 89 94 86 97 -2 2 -555 -193 -1229 -433z"/>
<path d="M3142 5113 c4 -14 1097 -1859 2981 -5031 11 -18 22 -31 24 -28 2 2 0
375 -6 828 -6 452 -16 1194 -21 1648 -24 1936 -29 2233 -37 2240 -4 4 -658 84
-1453 179 -795 95 -1456 174 -1469 177 -19 4 -23 2 -19 -13z"/>
<path d="M8175 4951 l-1460 -176 -7 -170 c-3 -94 -11 -624 -18 -1180 -10 -920
-18 -1553 -36 -2905 -4 -311 -3 -472 4 -465 16 16 2994 5038 3000 5058 2 10
-1 17 -9 16 -8 -1 -671 -81 -1474 -178z"/>
</g>
</svg>
